<svg width="1200" height="675" xmlns="http://www.w3.org/2000/svg">
  <defs>
    <radialGradient id="quantum-bg">
      <stop offset="0%" style="stop-color:#1a0033;stop-opacity:1" />
      <stop offset="100%" style="stop-color:#000000;stop-opacity:1" />
    </radialGradient>
    <filter id="quantum-glow">
      <feGaussianBlur stdDeviation="6" result="coloredBlur"/>
      <feMerge>
        <feMergeNode in="coloredBlur"/>
        <feMergeNode in="SourceGraphic"/>
      </feMerge>
    </filter>
  </defs>
  
  <rect width="1200" height="675" fill="url(#quantum-bg)"/>
  
  <!-- Quantum particles -->
  <circle cx="100" cy="100" r="3" fill="#00ffff" filter="url(#quantum-glow)"/>
  <circle cx="200" cy="150" r="3" fill="#00ffff" filter="url(#quantum-glow)"/>
  <circle cx="300" cy="200" r="3" fill="#00ffff" filter="url(#quantum-glow)"/>
  <circle cx="400" cy="250" r="3" fill="#00ffff" filter="url(#quantum-glow)"/>
  <circle cx="500" cy="300" r="3" fill="#00ffff" filter="url(#quantum-glow)"/>
  <circle cx="700" cy="350" r="3" fill="#00ffff" filter="url(#quantum-glow)"/>
  <circle cx="800" cy="400" r="3" fill="#00ffff" filter="url(#quantum-glow)"/>
  <circle cx="900" cy="450" r="3" fill="#00ffff" filter="url(#quantum-glow)"/>
  <circle cx="1000" cy="500" r="3" fill="#00ffff" filter="url(#quantum-glow)"/>
  <circle cx="1100" cy="550" r="3" fill="#00ffff" filter="url(#quantum-glow)"/>
  
  <!-- Connecting lines -->
  <path d="M100,100 L200,150 L300,200 L400,250 L500,300 L700,350 L800,400 L900,450 L1000,500 L1100,550" stroke="#00ffff" stroke-width="1" fill="none" opacity="0.3"/>
  
  <!-- Title -->
  <text x="600" y="280" font-family="Arial, sans-serif" font-size="96" font-weight="300" fill="#00ffff" text-anchor="middle" letter-spacing="10" filter="url(#quantum-glow)">QUANTUM</text>
  <text x="600" y="360" font-family="Arial, sans-serif" font-size="48" font-weight="300" fill="#00ffff" text-anchor="middle" letter-spacing="5">INTERFACE PRO</text>
  
  <!-- Features -->
  <text x="600" y="450" font-family="Arial, sans-serif" font-size="24" fill="rgba(0,255,255,0.8)" text-anchor="middle">WebGL Shaders • Particle Physics • Custom GLSL</text>
  
  <!-- aeLTD branding -->
  <text x="600" y="600" font-family="Arial, sans-serif" font-size="20" fill="rgba(0,255,255,0.5)" text-anchor="middle">aeLTD Premium Collection</text>
  <text x="600" y="625" font-family="Arial, sans-serif" font-size="20" fill="rgba(0,255,255,0.5)" text-anchor="middle">Open Tabs ∞ Certified</text>
</svg>