<svg width="32" height="32" viewBox="0 0 32 32" xmlns="http://www.w3.org/2000/svg">
  <defs>
    <!-- Simplified gradients for 32px -->
    <linearGradient id="bodyGrad32" x1="0%" y1="0%" x2="100%" y2="100%">
      <stop offset="0%" style="stop-color:#667eea;stop-opacity:1" />
      <stop offset="100%" style="stop-color:#764ba2;stop-opacity:1" />
    </linearGradient>
    
    <linearGradient id="topFace32" x1="0%" y1="0%" x2="100%" y2="100%">
      <stop offset="0%" style="stop-color:#ffffff;stop-opacity:0.9" />
      <stop offset="100%" style="stop-color:#f1f5f9;stop-opacity:0.7" />
    </linearGradient>
    
    <linearGradient id="screenGrad32" x1="0%" y1="0%" x2="100%" y2="100%">
      <stop offset="0%" style="stop-color:#1e293b;stop-opacity:0.95" />
      <stop offset="100%" style="stop-color:#0f172a;stop-opacity:0.9" />
    </linearGradient>

    <linearGradient id="aiGlow32" x1="0%" y1="0%" x2="100%" y2="100%">
      <stop offset="0%" style="stop-color:#10b981;stop-opacity:1" />
      <stop offset="100%" style="stop-color:#047857;stop-opacity:0.8" />
    </linearGradient>

    <filter id="dropShadow32" x="-50%" y="-50%" width="200%" height="200%">
      <feGaussianBlur in="SourceAlpha" stdDeviation="1"/>
      <feOffset dx="0.5" dy="1" result="offset"/>
      <feComponentTransfer>
        <feFuncA type="linear" slope="0.25"/>
      </feComponentTransfer>
      <feMerge> 
        <feMergeNode/>
        <feMergeNode in="SourceGraphic"/> 
      </feMerge>
    </filter>

    <filter id="glow32">
      <feGaussianBlur stdDeviation="0.8" result="coloredBlur"/>
      <feMerge>
        <feMergeNode in="coloredBlur"/>
        <feMergeNode in="SourceGraphic"/>
      </feMerge>
    </filter>
  </defs>
  
  <!-- Main isometric device -->
  <polygon points="6,9 16,4 26,9 26,19 16,24 6,19" fill="url(#bodyGrad32)" filter="url(#dropShadow32)"/>
  
  <!-- Device sides -->
  <polygon points="6,9 6,19 11,22 11,12" fill="#94a3b8" opacity="0.6"/>
  <polygon points="21,12 21,22 26,19 26,9" fill="#cbd5e1" opacity="0.8"/>
  
  <!-- Top face -->
  <polygon points="6,9 16,4 21,7 11,12" fill="url(#topFace32)"/>
  
  <!-- Screen -->
  <polygon points="8,11 18,6 18,15 8,20" fill="url(#screenGrad32)" stroke="#1e293b" stroke-width="0.3"/>
  
  <!-- Screen content (minimal) -->
  <rect x="9" y="9" width="8" height="0.8" fill="#64748b" opacity="0.8" transform="skewY(-15)"/>
  <rect x="9" y="11" width="6" height="0.6" fill="#94a3b8" opacity="0.7" transform="skewY(-15)"/>
  <rect x="9" y="12.5" width="7" height="0.6" fill="#94a3b8" opacity="0.7" transform="skewY(-15)"/>
  
  <!-- Recording indicator -->
  <circle cx="18" cy="7" r="1" fill="#ef4444" filter="url(#glow32)"/>
  <circle cx="18.5" cy="6.5" r="0.6" fill="#fca5a5" opacity="0.8"/>
  
  <!-- AI indicator (very simplified) -->
  <g transform="translate(12, 22)">
    <polygon points="0,0 3,1 6,0 6,3 3,4 0,3" fill="url(#aiGlow32)" stroke="#047857" stroke-width="0.2"/>
    <polygon points="0,0 3,-1 6,0 3,1" fill="#34d399" opacity="0.9"/>
    <polygon points="6,0 6,3 3,4 3,1" fill="#059669" opacity="0.8"/>
    
    <!-- AI dots -->
    <circle cx="1.5" cy="1.5" r="0.3" fill="#ffffff" opacity="0.9"/>
    <circle cx="4.5" cy="1.5" r="0.3" fill="#ffffff" opacity="0.9"/>
    <circle cx="3" cy="2.5" r="0.3" fill="#ffffff" opacity="0.9"/>
  </g>
  
  <!-- Connection -->
  <path d="M13,17 Q15,14 17,11" stroke="url(#aiGlow32)" stroke-width="0.8" fill="none" stroke-linecap="round" opacity="0.5"/>
  
  <!-- Highlight -->
  <polygon points="7,10 15,5 20,8 12,13" fill="#ffffff" opacity="0.15"/>
  <line x1="6" y1="9" x2="16" y2="4" stroke="#ffffff" stroke-width="0.3" opacity="0.4"/>
  
  <!-- Shadow -->
  <ellipse cx="16" cy="25" rx="8" ry="2" fill="#000000" opacity="0.06"/>
</svg>